<svg xmlns="http://www.w3.org/2000/svg" viewBox="0 0 128 128" role="img" aria-label="Rechi Cyber Garden">
    <defs>
        <linearGradient id="background" x1="18" y1="10" x2="110" y2="118" gradientUnits="userSpaceOnUse">
            <stop stop-color="#111827" />
            <stop offset="1" stop-color="#080a10" />
        </linearGradient>
        <linearGradient id="stem" x1="32" y1="30" x2="92" y2="102" gradientUnits="userSpaceOnUse">
            <stop stop-color="#d8ff3e" />
            <stop offset="1" stop-color="#65ff7a" />
        </linearGradient>
    </defs>

    <rect width="128" height="128" rx="24" fill="url(#background)" />
    <path d="M16 32H112M16 64H112M16 96H112M32 16V112M64 16V112M96 16V112" stroke="#68a6ff" stroke-opacity=".11" stroke-width="2" />
    <path d="M21 105C38 94 53 101 66 94C82 85 94 91 107 82V111H21Z" fill="#7138d9" fill-opacity=".68" />

    <path d="M36 98V31H66C83 31 93 41 93 55C93 69 83 78 66 78H48" fill="none" stroke="url(#stem)" stroke-linecap="square" stroke-linejoin="round" stroke-width="12" />
    <path d="M66 77L91 99" fill="none" stroke="#d8ff3e" stroke-linecap="square" stroke-width="12" />
    <path d="M87 24L100 37" stroke="#ff2bd6" stroke-linecap="square" stroke-width="9" />
    <rect x="101" y="54" width="8" height="8" fill="#68a6ff" />
    <rect x="18" y="73" width="7" height="7" fill="#ff2bd6" />
</svg>
